 
<svg version="1.0" xmlns="http://www.w3.org/2000/svg"
 width="340.000000pt" height="340.000000pt" viewBox="0 0 340.000000 340.000000"
 preserveAspectRatio="xMidYMid meet">

<g transform="translate(0.000000,340.000000) scale(0.100000,-0.100000)"
fill="#000000" stroke="none">
<path d="M1655 3279 c42 -118 2 -274 -112 -438 -74 -107 -129 -163 -355 -367
-230 -207 -344 -321 -466 -469 -189 -227 -315 -473 -368 -720 -22 -104 -23
-322 -1 -425 62 -301 250 -544 536 -693 91 -48 227 -100 244 -94 6 2 -9 17
-34 34 -25 17 -75 63 -111 101 -189 200 -211 439 -64 685 41 70 153 193 213
235 l32 23 -6 -69 c-8 -96 2 -136 45 -184 48 -53 102 -78 172 -78 89 0 172 51
199 123 16 41 13 126 -5 179 -8 26 -41 75 -75 114 -81 93 -133 173 -159 242
-18 47 -21 73 -18 142 4 75 9 94 41 155 30 57 107 155 122 155 2 0 -1 -16 -6
-35 -12 -43 2 -101 38 -159 52 -85 120 -141 313 -261 218 -135 312 -198 385
-258 242 -200 355 -461 300 -696 -36 -151 -167 -318 -319 -406 -38 -21 -64
-41 -59 -42 6 -2 43 8 84 23 220 79 396 188 545 338 150 151 226 279 276 465
31 116 29 313 -5 443 -74 282 -278 528 -589 711 l-77 46 6 -33 c16 -98 -108
-206 -237 -206 -50 0 -129 40 -169 85 -58 66 -75 118 -75 220 0 78 6 111 44
240 43 143 45 156 45 275 0 104 -4 137 -23 194 -53 159 -165 323 -282 416
l-40 31 15 -42z"/>
</g>
</svg>
