 
<svg version="1.0" xmlns="http://www.w3.org/2000/svg"
 width="1260.000000pt" height="756.000000pt" viewBox="0 0 1260.000000 756.000000"
 preserveAspectRatio="xMidYMid meet">

<g transform="translate(0.000000,756.000000) scale(0.100000,-0.100000)"
fill="#000000" stroke="none">
<path d="M1700 7270 c-30 -4 -74 -16 -96 -28 -58 -29 -129 -112 -151 -175 -17
-50 -18 -179 -18 -3122 0 -1688 4 -3091 8 -3116 4 -26 13 -54 20 -63 13 -17
-452 -16 7669 -16 l2006 0 14 33 c18 44 26 6127 7 6222 -21 110 -73 185 -164
233 l-50 27 -965 6 c-1344 9 -8213 8 -8280 -1z m9180 -3245 l0 -2865 -4580 0
-4580 0 0 2865 0 2865 4580 0 4580 0 0 -2865z"/>
</g>
</svg>
