 
<svg version="1.0" xmlns="http://www.w3.org/2000/svg"
 width="1260.000000pt" height="756.000000pt" viewBox="0 0 1260.000000 756.000000"
 preserveAspectRatio="xMidYMid meet">

<g transform="translate(0.000000,756.000000) scale(0.100000,-0.100000)"
fill="#000000" stroke="none">
<path d="M289 736 c-2 -2 -3 -50 -1 -106 l3 -101 47 -29 c63 -39 210 -85 357
-113 l120 -22 5445 -2 c3375 -1 5474 2 5520 8 208 26 405 82 485 137 l40 28 0
99 c0 97 -6 114 -34 96 -13 -8 -23 -101 -11 -101 3 0 5 -22 5 -50 l0 -50 -74
0 c-64 0 -72 2 -61 15 8 9 9 15 2 15 -6 0 -9 9 -7 21 6 29 8 112 4 129 -2 8
-11 18 -19 22 -20 9 -216 10 -368 2 -102 -6 -119 -9 -114 -22 3 -8 1 -13 -4
-10 -5 3 -18 1 -29 -3 -18 -9 -18 -9 3 -5 21 4 23 2 17 -23 -3 -15 -1 -38 4
-52 5 -13 10 -17 11 -9 0 13 1 13 10 0 11 -18 -5 -30 -36 -24 -12 2 -25 0 -28
-5 -4 -5 5 -8 18 -7 18 2 23 -1 18 -12 -4 -11 -1 -14 10 -9 9 3 24 -1 35 -8
15 -12 -27 -14 -312 -15 -3223 -4 -10462 1 -10422 7 17 3 27 10 27 22 0 9 5
22 12 29 9 9 9 12 -2 12 -7 0 -11 3 -7 6 3 4 0 19 -8 34 -11 22 -11 27 0 27 7
0 11 -6 8 -14 -3 -7 0 -13 7 -13 6 0 8 -4 5 -10 -3 -5 -2 -10 3 -10 11 0 10
59 -2 78 -4 6 -4 17 -1 22 3 6 0 10 -7 10 -7 0 -110 3 -228 6 -228 6 -277 0
-272 -32 1 -10 3 -50 4 -89 1 -38 7 -73 12 -77 6 -4 -24 -8 -66 -8 l-77 0 1
94 c0 52 -3 99 -6 105 -7 11 -29 15 -37 7z m675 -48 c7 -5 4 -8 -6 -8 -12 0
-18 7 -17 23 0 15 2 17 6 7 3 -8 11 -18 17 -22z m10708 7 c3 3 11 -1 17 -9 8
-10 9 -16 1 -21 -6 -4 -9 -2 -8 3 2 6 -1 11 -7 12 -16 3 -35 21 -35 34 0 6 7
3 14 -6 7 -10 15 -15 18 -13z m-8 -67 c-3 -5 -12 -2 -20 6 -20 21 -17 28 5 14
11 -7 17 -16 15 -20z m-10724 -42 c0 -2 -7 -6 -15 -10 -8 -3 -15 -1 -15 4 0 6
7 10 15 10 8 0 15 -2 15 -4z"/>
<path d="M5460 726 c0 -50 67 -116 119 -116 21 0 22 2 10 17 -8 9 -9 14 -2 10
6 -4 3 11 -8 32 -10 22 -19 45 -19 51 0 5 -8 10 -19 10 -10 0 -33 3 -50 6 -25
5 -31 3 -31 -10z"/>
<path d="M7052 731 c-18 -3 -33 -10 -34 -16 -1 -16 -9 -38 -19 -57 -6 -12 -6
-18 1 -18 5 0 7 -7 4 -15 -15 -38 79 4 106 47 38 63 27 75 -58 59z"/>
<path d="M11560 726 c0 -10 28 -13 41 -5 10 6 7 9 -13 9 -16 0 -28 -2 -28 -4z"/>
<path d="M11580 616 c0 -2 7 -7 16 -10 8 -3 12 -2 9 4 -6 10 -25 14 -25 6z"/>
<path d="M971 571 c-7 -5 -10 -14 -7 -20 5 -8 11 -7 22 3 24 24 14 35 -15 17z"/>
</g>
</svg>
