 
<svg version="1.0" xmlns="http://www.w3.org/2000/svg"
 width="340.000000pt" height="340.000000pt" viewBox="0 0 340.000000 340.000000"
 preserveAspectRatio="xMidYMid meet">

<g transform="translate(0.000000,340.000000) scale(0.100000,-0.100000)"
fill="#000000" stroke="none">
<path d="M1365 3303 c-356 -139 -435 -175 -536 -244 -31 -21 -59 -46 -63 -55
-8 -20 17 -48 51 -58 17 -6 25 -1 37 22 15 29 80 92 94 92 5 0 46 -45 92 -100
66 -79 88 -100 109 -100 14 0 37 -3 51 -6 18 -5 -2 21 -78 96 -56 57 -100 105
-98 107 2 2 48 -6 102 -17 132 -28 235 -46 312 -55 l63 -7 -117 -67 -118 -66
42 -9 c45 -9 76 5 172 78 l46 35 45 -82 c46 -82 66 -98 106 -83 13 5 12 11 -5
38 -48 78 -163 321 -192 406 -36 102 -40 105 -115 75z m79 -68 c3 -30 17 -88
30 -130 13 -41 20 -75 15 -75 -4 0 -99 16 -209 35 -110 19 -212 35 -225 35
-63 0 -2 37 215 131 85 37 158 65 161 63 3 -2 9 -28 13 -59z"/>
<path d="M1941 1751 c-12 -8 -12 -24 -2 -98 12 -94 14 -173 6 -173 -10 0 -181
109 -220 140 -22 18 -39 36 -38 41 4 12 -2 11 -45 -7 -20 -9 -46 -17 -57 -20
-11 -2 -29 -8 -40 -13 -11 -5 -31 -14 -45 -20 l-25 -10 26 5 c24 5 27 2 33
-31 4 -20 4 -57 1 -83 -10 -69 -46 -226 -55 -235 -12 -14 -129 123 -162 190
-17 35 -34 66 -38 68 -12 7 -73 -17 -63 -24 5 -3 12 -14 16 -23 14 -40 102
-161 153 -212 l55 -55 -38 -16 c-70 -30 -237 -87 -319 -109 l-82 -22 26 40
c47 75 181 366 176 381 -7 18 -7 18 -48 1 -24 -10 -39 -27 -55 -62 -46 -104
-149 -286 -193 -343 l-18 -24 -17 39 c-13 28 -18 66 -18 136 0 53 -3 99 -7
103 -13 13 -85 -43 -91 -71 -7 -40 9 -143 34 -209 11 -31 19 -58 17 -59 -6 -6
-351 -105 -402 -116 -27 -6 -51 -8 -54 -5 -11 10 19 85 58 142 21 33 64 83 94
111 59 56 53 70 -11 23 -94 -68 -197 -196 -229 -283 -62 -170 64 -351 341
-490 218 -110 585 -190 940 -205 l140 -6 69 139 c112 225 180 401 220 569 70
289 84 704 30 888 -6 18 -40 23 -63 8z m-206 -192 c61 -34 132 -72 159 -86
l49 -25 -48 -34 c-57 -40 -218 -124 -293 -153 l-54 -20 6 25 c20 77 45 218 51
282 4 39 10 72 14 72 4 0 56 -27 116 -61z m205 -394 c-15 -153 -16 -156 -49
-148 -89 21 -318 143 -306 163 3 4 49 33 102 64 54 30 134 80 178 109 l80 54
3 -66 c2 -36 -2 -115 -8 -176z m-107 -159 c37 -10 67 -20 67 -22 0 -13 -357
-165 -465 -197 -27 -8 -59 -19 -70 -23 -18 -7 -18 -5 4 31 20 34 73 149 136
291 l18 41 121 -52 c66 -28 151 -60 189 -69z m-434 32 c-36 -87 -147 -304
-163 -318 -17 -13 -132 66 -212 146 -64 64 -75 80 -51 81 20 0 286 93 367 129
41 17 78 32 81 33 4 1 -6 -31 -22 -71z m511 -90 c-1 -36 -119 -428 -129 -428
-3 0 -61 13 -129 30 -123 30 -262 79 -295 104 -16 13 -15 16 25 38 24 13 122
61 218 106 96 46 202 98 235 116 55 31 75 40 75 34z m-1132 -85 c-54 -82 -240
-343 -245 -343 -15 0 -61 42 -97 89 -53 68 -72 105 -81 153 l-7 37 64 19 c36
11 132 35 214 52 82 18 151 34 153 36 2 2 10 4 17 4 8 0 1 -18 -18 -47z m153
-30 c57 -54 144 -121 177 -136 12 -6 22 -13 22 -17 0 -4 -46 -24 -102 -45
-112 -41 -447 -155 -454 -155 -27 0 77 144 227 315 41 46 75 84 77 84 2 1 26
-20 53 -46z m229 -229 c0 -3 -32 -58 -71 -122 -40 -64 -81 -132 -91 -149 -11
-18 -26 -33 -34 -33 -44 0 -322 123 -339 151 -6 9 19 17 325 102 218 61 210
59 210 51z m244 -36 c86 -24 159 -39 316 -65 l35 -5 -55 -19 c-155 -53 -671
-201 -678 -194 -2 1 36 52 83 111 143 181 155 196 155 206 0 5 10 6 23 2 12
-4 67 -20 121 -36z m326 -210 c-21 -62 -45 -129 -53 -149 l-16 -36 -148 22
c-200 30 -393 66 -393 74 0 4 41 15 91 25 133 25 313 79 436 130 59 25 111 45
115 46 4 0 -11 -51 -32 -112z"/>
<path d="M955 1370 c-101 -51 -107 -57 -25 -24 25 10 51 24 58 31 7 7 19 13
26 13 12 0 57 29 46 30 -3 0 -50 -23 -105 -50z"/>
</g>
</svg>
