 
<svg version="1.0" xmlns="http://www.w3.org/2000/svg"
 width="340.000000pt" height="340.000000pt" viewBox="0 0 340.000000 340.000000"
 preserveAspectRatio="xMidYMid meet">

<g transform="translate(0.000000,340.000000) scale(0.100000,-0.100000)"
fill="#000000" stroke="none">
<path d="M755 2990 c-12 -19 44 -88 148 -184 133 -122 200 -205 247 -301 49
-103 64 -174 64 -310 0 -135 -17 -203 -84 -342 -85 -175 -269 -395 -490 -588
-56 -48 -99 -89 -97 -92 3 -2 71 33 152 77 81 44 154 80 161 80 7 0 84 36 171
81 144 73 198 96 408 174 39 14 86 34 105 44 19 10 55 23 80 30 25 7 117 37
205 65 88 29 225 70 305 91 80 21 192 51 249 67 245 69 687 168 753 168 15 0
28 4 28 8 0 22 -111 165 -183 234 -257 253 -688 409 -1392 504 -22 3 -74 11
-115 19 -41 8 -147 26 -235 41 -253 42 -434 93 -462 130 -7 10 -13 12 -18 4z
m269 -152 c28 -7 54 -20 61 -32 16 -24 50 -125 60 -176 7 -34 6 -34 -30 19
-21 29 -72 90 -114 134 -59 62 -70 79 -51 73 14 -3 47 -12 74 -18z m241 -57
c55 -11 124 -23 152 -27 29 -3 50 -10 47 -15 -3 -5 -33 -28 -67 -51 -34 -23
-86 -61 -115 -85 -30 -24 -57 -41 -62 -38 -4 3 -11 17 -15 32 -3 15 -22 66
-41 115 -40 102 -39 101 -16 94 9 -3 62 -14 117 -25z m303 -250 c4 -94 2 -113
-9 -109 -8 2 -75 24 -151 48 -126 40 -135 44 -125 62 14 22 144 132 202 172
l40 27 19 -43 c14 -31 21 -74 24 -157z m138 174 c114 -19 286 -54 292 -60 2
-2 -36 -24 -84 -48 -49 -25 -132 -70 -183 -101 -92 -54 -118 -66 -107 -47 7
11 -10 138 -28 214 -17 67 -26 63 110 42z m352 -142 c-8 -49 -91 -242 -126
-291 -7 -10 -34 1 -121 47 -62 34 -117 61 -122 61 -24 0 -1 21 86 79 107 71
264 161 281 161 8 0 8 -17 2 -57z m186 22 c117 -34 336 -115 336 -125 0 -4
-53 -22 -117 -40 -65 -18 -192 -57 -282 -87 -90 -30 -165 -52 -167 -50 -2 2 7
28 20 58 13 30 37 102 52 162 33 125 25 121 158 82z m-840 -204 c49 -15 91
-31 93 -37 3 -8 -227 -224 -239 -224 -1 0 -3 67 -3 149 l0 150 30 -6 c17 -3
70 -18 119 -32z m1205 2 c-40 -68 -315 -423 -338 -438 -5 -3 -30 21 -54 52
-25 32 -77 89 -116 128 -39 38 -71 72 -71 76 0 15 249 115 440 177 162 52 168
53 139 5z m261 -91 c72 -54 230 -199 230 -212 0 -3 -55 -12 -122 -18 -125 -12
-549 -84 -602 -102 -16 -5 -33 -10 -39 -10 -5 0 38 49 96 109 83 86 121 136
177 230 l71 120 57 -31 c31 -17 91 -56 132 -86z m-1360 -122 c-29 -88 -80
-193 -101 -205 -5 -4 -34 14 -65 39 -31 25 -61 46 -67 46 -17 0 57 73 163 162
59 49 96 74 98 66 1 -8 -11 -56 -28 -108z m229 75 c53 -26 90 -49 86 -55 -4
-6 -69 -42 -145 -80 -76 -38 -141 -74 -145 -80 -3 -5 -12 -10 -20 -10 -10 0
-2 24 25 83 21 45 46 106 56 135 12 33 24 52 35 52 8 0 57 -20 108 -45z m380
-243 c56 -46 88 -79 83 -84 -6 -6 -61 -24 -123 -42 -191 -55 -422 -128 -468
-148 -24 -10 -45 -17 -47 -15 -2 2 40 48 94 103 54 54 120 126 147 159 27 33
55 63 61 67 6 4 23 25 39 47 l28 41 47 -26 c26 -14 89 -60 139 -102z m-299 99
c0 -5 -3 -11 -8 -13 -4 -1 -31 -39 -61 -82 -78 -117 -237 -306 -257 -306 -2 0
-4 19 -4 43 -1 23 -9 67 -20 97 -11 30 -19 58 -20 62 0 4 19 17 43 29 23 12
72 41 108 65 37 24 92 56 123 70 30 14 58 30 61 35 8 12 35 12 35 0z m-519
-182 l24 -20 -30 -24 c-54 -43 -165 -124 -165 -120 0 2 20 45 45 96 25 51 45
99 45 106 0 15 32 0 81 -38z m145 -186 c9 -23 14 -48 11 -55 -2 -7 -65 -35
-138 -62 -74 -28 -159 -62 -189 -77 -104 -50 -106 -42 -10 37 52 43 133 117
180 165 l85 85 22 -25 c12 -14 30 -45 39 -68z m-247 -27 c-97 -93 -252 -216
-271 -216 -6 0 7 19 28 43 22 23 52 59 67 79 16 20 52 52 80 70 29 18 81 54
116 80 35 27 67 45 70 42 3 -3 -37 -47 -90 -98z"/>
</g>
</svg>
