 
<svg version="1.0" xmlns="http://www.w3.org/2000/svg"
 width="340.000000pt" height="340.000000pt" viewBox="0 0 340.000000 340.000000"
 preserveAspectRatio="xMidYMid meet">

<g transform="translate(0.000000,340.000000) scale(0.100000,-0.100000)"
fill="#000000" stroke="none">
<path d="M1280 3313 c0 -10 7 -31 15 -47 8 -15 15 -33 15 -38 0 -5 9 -28 19
-51 11 -24 23 -55 26 -70 4 -15 11 -30 16 -33 5 -3 9 -12 9 -21 0 -14 11 -42
45 -118 8 -16 17 -41 20 -55 7 -24 17 -50 50 -124 8 -19 15 -38 15 -42 0 -8
59 -160 86 -221 8 -17 14 -36 14 -42 0 -6 4 -19 10 -29 5 -9 22 -51 38 -91 16
-41 33 -76 38 -78 10 -3 22 20 59 112 10 22 23 54 30 70 7 17 29 68 48 115 19
47 69 166 110 265 41 99 102 246 135 327 33 80 62 155 64 165 3 17 -17 18
-429 21 -408 2 -433 1 -433 -15z"/>
<path d="M264 2888 c7 -24 53 -217 106 -441 17 -70 35 -138 39 -150 7 -18 70
-45 352 -150 189 -70 350 -127 357 -127 14 0 16 12 3 26 -5 5 -36 59 -69 119
-33 61 -103 189 -157 285 -54 96 -111 200 -128 230 -23 42 -101 180 -113 198
-2 4 -320 32 -363 32 -30 0 -33 -2 -27 -22z"/>
<path d="M2912 2894 c-117 -10 -146 -16 -157 -31 -13 -16 -226 -388 -302 -525
-18 -32 -51 -91 -75 -131 -66 -112 -117 -207 -112 -207 7 0 672 248 714 266
l35 15 73 307 c40 169 73 310 72 315 0 9 -74 7 -248 -9z"/>
<path d="M440 1749 l0 -434 157 -130 c86 -71 219 -183 296 -247 76 -65 143
-118 148 -118 5 0 9 168 9 391 l0 390 66 97 c37 53 73 104 80 113 24 27 17 42
-13 34 -16 -4 -64 -16 -108 -25 l-80 -19 -140 140 -140 139 -120 44 c-66 24
-128 47 -137 51 -17 7 -18 -18 -18 -426z"/>
<path d="M2938 2175 c-3 -3 -61 -26 -129 -50 l-124 -45 -140 -139 -140 -140
-80 19 c-44 9 -92 21 -107 25 -18 5 -28 3 -28 -4 0 -6 36 -61 80 -123 l80
-113 0 -392 c0 -266 3 -393 10 -393 6 0 43 28 83 63 40 34 172 145 295 247
l222 185 0 432 c0 238 -4 433 -8 433 -5 0 -11 -2 -14 -5z"/>
<path d="M1945 1481 c-203 -350 -234 -401 -245 -401 -7 0 -60 74 -60 84 0 6
-350 600 -359 609 -4 4 -42 -44 -84 -108 l-77 -115 0 -572 0 -573 69 -103 c39
-59 110 -145 166 -203 l98 -99 248 0 249 0 96 99 c53 54 127 145 165 202 l69
104 0 572 0 573 -79 118 -78 119 -178 -306z"/>
<path d="M710 823 l0 -158 163 -163 c89 -89 166 -162 170 -162 4 0 7 83 7 185
l0 185 -156 132 c-85 73 -162 134 -170 136 -12 3 -14 -22 -14 -155z"/>
<path d="M2508 844 l-158 -135 0 -185 c0 -101 3 -184 8 -184 4 0 80 73 170
163 l162 162 0 158 c0 119 -3 157 -12 157 -7 -1 -84 -62 -170 -136z"/>
</g>
</svg>
