 
<svg version="1.0" xmlns="http://www.w3.org/2000/svg"
 width="340.000000pt" height="340.000000pt" viewBox="0 0 340.000000 340.000000"
 preserveAspectRatio="xMidYMid meet">

<g transform="translate(0.000000,340.000000) scale(0.100000,-0.100000)"
fill="#000000" stroke="none">
<path d="M781 3146 l-173 -173 33 -7 c44 -7 471 -47 475 -43 7 7 104 240 104
250 0 6 -12 42 -26 79 l-26 68 -106 0 -107 0 -174 -174z"/>
<path d="M2236 3266 c-53 -119 -53 -117 -19 -193 16 -37 39 -88 49 -112 l19
-43 55 6 c30 4 129 13 220 21 91 9 180 18 199 21 l33 7 -173 173 -174 174 -93
0 -92 0 -24 -54z"/>
<path d="M1226 2952 c-21 -53 -44 -102 -50 -109 -8 -9 -37 -10 -116 -2 -175
15 -392 30 -396 26 -2 -1 11 -27 29 -57 19 -30 51 -86 72 -125 21 -38 83 -151
138 -250 55 -99 123 -220 150 -270 79 -145 84 -151 129 -168 24 -8 104 -38
179 -66 117 -44 146 -51 207 -51 l72 0 0 108 c0 101 -2 113 -41 212 -22 58
-60 157 -84 220 -24 63 -74 192 -110 285 -36 94 -80 206 -96 250 -17 44 -33
83 -37 87 -4 4 -25 -37 -46 -90z"/>
<path d="M2076 2878 c-32 -79 -76 -183 -96 -233 -21 -49 -63 -153 -95 -230
-32 -77 -73 -176 -91 -219 -32 -75 -34 -86 -34 -198 l0 -118 82 0 c76 0 95 5
248 61 91 33 171 68 178 77 11 15 80 133 169 292 109 194 279 492 300 523 l24
39 -103 -7 c-57 -4 -175 -13 -262 -20 -88 -8 -163 -12 -167 -9 -4 2 -24 44
-45 94 -21 49 -41 90 -44 90 -4 0 -32 -64 -64 -142z"/>
<path d="M1298 1809 l-18 -30 180 -306 c99 -168 180 -307 180 -309 0 -10 53
-84 60 -84 11 0 41 50 244 398 l176 304 -21 29 c-11 16 -24 29 -28 29 -4 0
-28 -13 -54 -30 l-48 -30 -255 0 -255 0 -64 30 c-35 17 -68 30 -72 30 -4 0
-16 -14 -25 -31z"/>
</g>
</svg>
