 
<svg version="1.0" xmlns="http://www.w3.org/2000/svg"
 width="340.000000pt" height="340.000000pt" viewBox="0 0 340.000000 340.000000"
 preserveAspectRatio="xMidYMid meet">
<g transform="translate(0.000000,340.000000) scale(0.100000,-0.100000)"
fill="#000000" stroke="none">
<path d="M692 3138 c8 -13 237 -409 508 -880 272 -472 497 -858 500 -858 4 0
546 935 993 1712 l27 48 -313 0 -313 0 -194 -340 c-107 -186 -197 -339 -200
-339 -3 0 -93 153 -200 339 l-194 340 -314 0 -314 0 14 -22z"/>
</g>
<g transform="translate(0.000000,340.000000) scale(0.100000,-0.100000)"
fill="#000000" stroke="none">
<path d="M0 3145 c0 -10 1694 -2945 1700 -2945 3 0 228 386 499 857 272 472
654 1134 848 1470 194 337 353 615 353 618 0 3 -154 4 -341 3 l-341 -3 -506
-877 c-279 -483 -509 -878 -512 -878 -3 0 -233 395 -512 878 l-506 877 -341 3
c-187 1 -341 0 -341 -3z"/>
</g>
</svg>
