<?xml version="1.0" standalone="no"?>
<!DOCTYPE svg PUBLIC "-//W3C//DTD SVG 20010904//EN"
 "http://www.w3.org/TR/2001/REC-SVG-20010904/DTD/svg10.dtd">
<svg version="1.0" xmlns="http://www.w3.org/2000/svg"
 width="340.000000pt" height="340.000000pt" viewBox="0 0 340.000000 340.000000"
 preserveAspectRatio="xMidYMid meet">

<g transform="translate(0.000000,340.000000) scale(0.100000,-0.100000)"
fill="#000000" stroke="none">
<path d="M1657 3247 c37 -135 -19 -306 -158 -483 -54 -69 -201 -212 -369 -360
-137 -120 -343 -330 -423 -431 -216 -271 -338 -536 -368 -799 -50 -442 153
-822 551 -1032 84 -44 223 -96 241 -90 7 2 -10 20 -37 40 -152 113 -249 271
-260 426 -15 201 91 413 287 574 l44 35 -3 -91 c-2 -80 0 -96 20 -131 33 -56
95 -97 157 -103 85 -8 138 5 182 45 57 51 69 81 69 163 0 74 -27 149 -66 181
-10 8 -43 47 -75 87 -123 154 -157 289 -106 423 29 78 63 133 105 172 l30 29
-5 -46 c-5 -38 0 -58 26 -111 47 -94 142 -177 358 -309 236 -145 323 -206 416
-295 176 -168 247 -320 247 -524 -1 -141 -33 -236 -119 -345 -45 -56 -149
-143 -226 -187 -124 -72 76 -11 249 76 232 117 447 323 551 529 125 247 124
562 -3 815 -103 206 -304 405 -556 550 l-49 28 6 -32 c4 -20 1 -46 -9 -69 -35
-85 -113 -132 -220 -132 -107 0 -170 45 -222 159 -23 49 -24 62 -19 160 4 85
13 133 47 246 42 140 42 140 37 270 -5 134 -10 156 -58 263 -52 113 -176 273
-260 333 l-26 18 14 -52z m149 -264 c14 -23 41 -80 60 -125 28 -67 36 -100 40
-173 5 -85 3 -98 -36 -230 -40 -130 -43 -150 -47 -287 -5 -141 -4 -149 20
-202 30 -65 106 -150 159 -177 30 -15 59 -19 142 -19 133 0 171 15 249 100
l58 62 72 -48 c40 -27 113 -90 164 -140 164 -164 263 -352 293 -560 25 -173
-30 -389 -142 -552 -25 -37 -225 -244 -270 -280 -12 -10 -11 2 8 55 21 59 24
86 24 210 0 152 -10 207 -53 305 -39 87 -105 174 -214 279 -116 112 -166 148
-418 304 -218 134 -284 187 -325 259 -24 41 -30 63 -30 110 0 77 -24 106 -85
106 -36 0 -46 -6 -96 -57 -65 -67 -88 -105 -119 -190 -19 -53 -22 -77 -18
-175 3 -103 7 -119 36 -180 31 -64 127 -195 166 -227 27 -23 66 -107 66 -143
0 -96 -102 -153 -193 -109 -64 31 -80 72 -72 178 7 79 6 86 -16 109 -17 18
-33 24 -67 24 -43 0 -46 -3 -171 -127 -111 -112 -132 -139 -169 -214 -58 -116
-75 -205 -69 -349 3 -89 9 -126 26 -164 11 -27 20 -51 17 -53 -9 -10 -169 155
-215 222 -68 100 -94 153 -125 255 -39 130 -50 231 -37 351 43 393 293 790
751 1193 63 56 171 155 239 221 185 179 252 272 313 429 37 95 33 95 84 9z"/>
</g>
</svg>
