<?xml version="1.0" standalone="no"?>
<!DOCTYPE svg PUBLIC "-//W3C//DTD SVG 20010904//EN"
 "http://www.w3.org/TR/2001/REC-SVG-20010904/DTD/svg10.dtd">
<svg version="1.0" xmlns="http://www.w3.org/2000/svg"
 width="340.000000pt" height="340.000000pt" viewBox="0 0 340.000000 340.000000"
 preserveAspectRatio="xMidYMid meet">

<g transform="translate(0.000000,340.000000) scale(0.100000,-0.100000)"
fill="#000000" stroke="none">
<path d="M1275 3276 c-338 -127 -525 -234 -525 -297 0 -13 66 -88 173 -197
191 -196 231 -255 267 -398 27 -105 27 -254 0 -360 -64 -252 -270 -520 -646
-839 -133 -113 -221 -210 -259 -288 -34 -68 -37 -82 -33 -139 8 -137 122 -269
328 -381 135 -73 409 -157 579 -177 252 -30 377 -41 448 -38 l78 3 69 135 c42
80 72 128 74 118 2 -10 7 -18 12 -18 12 0 103 234 134 345 64 226 96 548 76
776 -7 79 -13 159 -13 178 0 55 -6 53 343 147 113 31 239 66 280 79 67 21 70
23 30 19 l-45 -4 50 15 c97 29 374 85 419 85 24 0 47 4 50 8 9 14 -82 140
-160 222 -146 153 -348 270 -620 359 -149 49 -403 111 -544 131 -155 23 -136
6 -243 218 -52 103 -107 224 -122 270 -20 57 -33 82 -44 82 -9 -1 -79 -25
-156 -54z m165 7 c0 -23 24 -122 58 -237 4 -15 2 -18 -13 -13 -9 4 -82 18
-160 32 -79 13 -163 29 -186 34 -24 6 -59 11 -76 11 -18 0 -33 4 -33 10 0 5
37 29 83 52 80 40 304 137 320 138 4 0 7 -12 7 -27z m-426 -283 c32 -36 67
-78 79 -94 l20 -28 -34 7 c-118 24 -169 38 -183 48 -16 12 -13 17 24 60 45 51
43 58 -7 27 -18 -11 -33 -16 -33 -11 0 12 60 63 70 59 4 -2 33 -32 64 -68z
m156 40 c41 -10 132 -27 202 -36 l127 -17 -57 -34 c-151 -91 -178 -104 -205
-94 -14 6 -65 49 -113 96 -68 67 -84 89 -73 96 20 12 34 11 119 -11z m437
-237 c-6 -5 -65 5 -214 35 l-33 7 83 56 82 56 44 -74 c24 -41 41 -76 38 -80z
m-572 25 c22 -7 43 -17 48 -23 10 -14 58 -167 54 -171 -2 -2 -17 14 -33 35
-16 22 -58 72 -94 112 -69 76 -70 74 25 47z m315 -73 c52 -9 96 -18 98 -20 3
-2 -216 -165 -223 -165 -2 0 -9 17 -15 38 -7 20 -23 63 -36 94 -13 32 -24 61
-24 66 0 13 90 7 200 -13z m218 -227 c3 -74 2 -98 -8 -98 -20 0 -214 62 -224
71 -6 5 -20 9 -33 9 -13 0 -23 4 -23 8 0 18 162 157 215 185 l30 15 19 -46
c12 -30 20 -83 24 -144z m289 140 c67 -12 120 -25 117 -30 -3 -5 -33 -22 -67
-39 -34 -17 -91 -48 -127 -69 -98 -57 -140 -80 -145 -80 -3 0 -5 17 -5 38 0
20 -7 68 -15 107 -8 38 -15 75 -15 82 0 27 60 25 257 -9z m177 -177 c-23 -63
-104 -221 -113 -221 -10 0 -173 88 -184 99 -5 5 12 21 37 37 25 16 46 33 46
37 0 10 -35 -8 -77 -39 -17 -13 -34 -20 -37 -15 -9 14 211 162 298 202 l41 18
3 -36 c2 -20 -4 -57 -14 -82z m278 66 c131 -42 248 -88 248 -97 0 -4 -35 -17
-77 -29 -43 -12 -148 -44 -234 -71 -173 -55 -191 -59 -183 -32 3 9 -2 5 -11
-10 -28 -49 -34 -30 -10 31 13 32 34 97 46 144 19 78 24 86 48 90 55 9 72 6
173 -26z m269 -209 c-52 -82 -303 -398 -316 -398 -6 0 -18 13 -28 29 -10 17
-51 66 -93 110 -42 44 -73 84 -70 89 3 5 50 28 106 51 55 24 99 45 97 47 -2 2
-43 -10 -92 -26 -49 -16 -90 -28 -92 -26 -11 11 468 186 510 186 14 0 11 -11
-22 -62z m-1156 21 c36 -12 65 -25 65 -29 0 -5 -39 -43 -87 -86 -49 -43 -100
-88 -114 -101 l-25 -23 1 110 c3 157 23 174 160 129z m1285 1 c21 11 50 -3
149 -75 96 -69 238 -200 229 -210 -4 -5 -76 -16 -160 -26 -148 -17 -522 -80
-563 -95 -11 -4 18 33 65 82 89 92 144 163 175 224 39 77 66 113 77 102 7 -7
17 -8 28 -2z m-1178 -107 c-5 -10 -15 -43 -22 -73 -12 -54 -96 -230 -109 -230
-16 0 -83 79 -76 90 4 7 1 16 -6 21 -11 6 -6 16 21 45 34 35 188 164 196 164
3 0 1 -8 -4 -17z m232 -35 c53 -27 57 -31 40 -42 -33 -23 -216 -116 -227 -116
-6 0 -21 -10 -34 -22 -32 -30 -28 -17 23 87 24 50 42 82 39 73 -2 -10 0 -18 5
-18 6 0 10 6 10 14 0 7 9 25 21 40 24 31 32 30 123 -16z m254 -155 c67 -46
184 -145 177 -151 -5 -6 -144 -49 -440 -138 -66 -20 -133 -43 -148 -51 -50
-25 -39 -9 36 59 39 36 101 99 137 141 36 41 67 74 69 72 2 -2 -19 -35 -46
-72 -67 -93 -72 -104 -28 -63 34 31 115 129 170 203 11 15 23 27 26 27 3 0 24
-12 47 -27z m-233 4 c-39 -26 -200 -109 -188 -97 14 15 184 108 198 109 5 1 1
-5 -10 -12z m-60 -99 c-33 -50 -185 -237 -209 -257 -14 -12 -16 -10 -16 22 0
20 -5 48 -11 63 -19 51 -5 70 94 127 141 83 162 94 166 91 2 -2 -9 -23 -24
-46z m-476 -32 c6 -8 25 -19 41 -26 17 -7 30 -15 30 -19 0 -3 -24 -22 -52 -41
-29 -19 -69 -50 -90 -69 -21 -18 -38 -31 -38 -28 0 3 13 30 30 62 16 31 35 74
41 96 13 42 20 47 38 25z m24 -159 c-16 -27 -93 -89 -93 -75 0 7 21 30 48 51
52 41 57 43 45 24z m167 -53 c6 -18 10 -41 8 -50 -2 -10 -54 -34 -143 -68 -77
-29 -164 -65 -193 -80 -30 -15 -56 -26 -58 -24 -2 2 20 22 49 45 29 22 90 75
136 118 63 58 86 74 92 64 7 -11 16 -7 41 18 36 37 50 32 68 -23z m504 -87
c15 -148 15 -157 3 -157 -17 0 -192 108 -213 132 -11 11 -15 23 -9 25 79 34
192 67 202 60 6 -4 14 -32 17 -60z m-814 28 c-7 -8 -9 -15 -5 -15 14 0 -29
-42 -104 -102 -41 -32 -76 -56 -79 -54 -7 8 110 136 148 162 39 27 59 31 40 9z
m670 -137 c77 -40 140 -76 140 -80 0 -21 -240 -156 -333 -187 -31 -10 -57 -15
-57 -11 0 4 11 58 25 120 14 62 25 125 25 140 0 22 43 90 57 90 2 0 67 -33
143 -72z m-262 -10 c3 -43 -40 -263 -54 -277 -10 -10 -127 120 -154 171 -25
48 -25 48 -5 67 21 21 183 91 200 87 6 -2 11 -23 13 -48z m-254 -141 c18 -30
62 -84 95 -120 l62 -66 -28 -14 c-66 -33 -340 -123 -349 -115 -2 2 19 46 46
98 27 52 66 134 86 183 21 48 42 87 46 87 4 0 23 -24 42 -53z m662 -124 c-3
-87 -10 -176 -14 -198 -7 -37 -10 -40 -38 -39 -34 2 -172 60 -234 99 -25 16
-40 33 -40 45 0 11 -5 20 -11 20 -24 0 16 31 114 89 56 33 127 77 157 99 30
22 59 41 64 41 5 1 6 -65 2 -156z m-885 59 c-38 -75 -137 -240 -156 -258 -11
-11 -15 -9 -24 18 -15 42 -13 156 3 193 9 23 33 40 107 76 52 26 95 44 97 39
2 -5 -11 -35 -27 -68z m99 8 c-12 -23 -24 -40 -27 -37 -3 3 5 24 18 46 29 53
37 46 9 -9z m-403 -72 c-8 -31 17 -167 42 -222 l20 -47 -27 -10 c-65 -25 -342
-102 -390 -108 -64 -9 -65 -3 -22 88 45 94 158 203 280 269 52 29 97 52 99 52
2 0 1 -10 -2 -22z m359 -15 c-8 -15 -15 -25 -16 -21 0 12 23 58 27 54 3 -2 -2
-17 -11 -33z m302 -142 c-7 -11 -15 -18 -19 -15 -4 2 -31 -5 -59 -16 -76 -30
-74 -23 5 15 83 40 89 41 73 16z m245 -25 c45 -18 118 -44 162 -56 44 -12 82
-24 84 -26 10 -9 -393 -180 -473 -200 -23 -5 -28 -4 -23 7 132 304 135 308
160 309 5 0 45 -15 90 -34z m-272 -59 c-17 -46 -152 -297 -161 -297 -17 0
-139 88 -190 137 -47 46 -52 55 -40 67 8 8 74 32 146 55 72 23 158 52 190 65
32 14 61 20 62 15 2 -5 -1 -24 -7 -42z m81 -23 c-20 -52 -62 -126 -62 -109 0
6 7 20 15 31 8 12 24 47 36 78 11 32 23 55 25 53 3 -3 -4 -26 -14 -53z m438
-38 c0 -34 -106 -404 -120 -419 -22 -25 -410 91 -410 122 0 4 12 14 28 21 15
7 22 15 15 17 -7 3 -13 9 -13 14 0 5 75 45 168 89 92 45 201 98 242 120 72 38
90 45 90 36z m-1135 -88 c-47 -73 -195 -285 -221 -316 -20 -24 -21 -24 -47 -8
-29 19 -96 104 -121 153 -11 22 -14 45 -10 77 l7 46 66 20 c36 10 125 31 196
46 72 14 132 28 134 30 2 2 10 4 17 4 8 0 -1 -21 -21 -52z m626 -25 c-12 -20
-14 -14 -5 12 4 9 9 14 11 11 3 -2 0 -13 -6 -23z m-522 -9 c7 9 20 16 28 16 7
0 50 -30 95 -66 44 -36 91 -70 104 -76 46 -21 48 -20 -201 -108 -168 -60 -328
-110 -334 -105 -2 3 1 15 6 28 13 29 151 201 224 281 49 54 54 57 59 36 5 -21
7 -21 19 -6z m504 -29 c-3 -9 -8 -14 -10 -11 -3 3 -2 9 2 15 9 16 15 13 8 -4z
m-246 -227 c-37 -79 -159 -268 -173 -268 -30 0 -214 74 -279 112 l-70 42 35
14 c19 8 94 29 165 48 107 28 337 91 341 93 1 1 -8 -18 -19 -41z m287 -8 c101
-26 241 -50 289 -50 20 0 37 -4 37 -8 0 -18 -714 -231 -728 -217 -2 2 32 48
76 102 43 54 87 111 97 126 10 15 20 25 23 23 2 -3 -14 -36 -37 -74 -70 -117
-41 -99 49 29 70 101 70 101 194 69z m451 -50 c-4 -12 -9 -19 -12 -17 -3 3 -2
15 2 27 4 12 9 19 12 17 3 -3 2 -15 -2 -27z m-131 -116 c-31 -100 -74 -213
-83 -219 -10 -6 -284 37 -441 68 -63 13 -110 26 -105 29 6 3 48 13 95 23 134
26 316 81 430 129 58 25 110 45 116 45 8 1 4 -26 -12 -75z"/>
<path d="M2522 2123 c-82 -106 -102 -148 -38 -82 43 44 136 167 136 180 0 21
-19 2 -98 -98z"/>
</g>
</svg>
