<?xml version="1.0" standalone="no"?>
<!DOCTYPE svg PUBLIC "-//W3C//DTD SVG 20010904//EN"
 "http://www.w3.org/TR/2001/REC-SVG-20010904/DTD/svg10.dtd">
<svg version="1.0" xmlns="http://www.w3.org/2000/svg"
 width="340.000000pt" height="340.000000pt" viewBox="0 0 340.000000 340.000000"
 preserveAspectRatio="xMidYMid meet">

<g transform="translate(0.000000,340.000000) scale(0.100000,-0.100000)"
fill="#000000" stroke="none">
<path d="M149 3347 c-75 -36 -119 -107 -119 -194 0 -34 18 -102 30 -113 4 -3
17 -23 30 -45 13 -21 31 -47 40 -56 21 -24 32 -39 60 -79 14 -19 32 -40 40
-47 8 -7 12 -13 8 -13 -4 0 4 -12 17 -26 14 -15 22 -31 18 -37 -3 -5 -1 -7 5
-3 9 5 30 -39 38 -79 1 -5 12 -39 24 -75 12 -36 24 -74 26 -85 3 -19 15 -48
35 -87 5 -10 9 -24 9 -31 0 -7 18 -48 40 -90 22 -42 36 -77 33 -77 -4 0 0 -6
9 -12 9 -7 25 -30 36 -51 11 -21 32 -49 47 -62 21 -17 26 -28 20 -42 -5 -10
-9 -21 -10 -25 -2 -5 -4 -10 -5 -13 -1 -3 -3 -8 -4 -12 -1 -5 -7 -26 -14 -47
-6 -22 -9 -43 -6 -47 2 -4 0 -10 -5 -13 -4 -3 -12 -25 -16 -48 -5 -24 -9 -45
-10 -48 -8 -29 -18 -80 -19 -100 -1 -14 -5 -31 -9 -37 -5 -7 -5 -18 -2 -24 4
-6 9 -56 11 -112 2 -56 6 -113 9 -127 6 -27 15 -77 19 -97 1 -7 5 -16 9 -19 4
-4 7 -18 7 -31 0 -13 4 -23 8 -23 5 0 15 -19 23 -42 7 -24 21 -51 29 -61 8
-10 15 -22 15 -27 0 -15 70 -84 101 -100 16 -8 38 -21 48 -30 11 -8 16 -10 12
-3 -5 9 2 11 22 8 39 -4 86 25 103 64 8 17 17 31 21 31 5 0 7 3 7 8 -1 4 0 9
1 12 1 3 4 23 6 45 2 22 6 54 8 70 3 17 8 49 12 72 7 47 18 47 41 -1 8 -17 25
-51 38 -76 13 -25 24 -51 24 -58 1 -7 7 -19 14 -26 6 -7 30 -34 52 -61 47 -56
77 -87 133 -136 23 -20 39 -39 35 -43 -3 -3 1 -6 11 -6 9 0 19 -7 22 -15 4 -8
12 -15 20 -15 8 0 14 -4 14 -8 0 -5 11 -14 25 -20 14 -6 25 -19 25 -27 0 -9 4
-13 10 -10 5 3 10 0 10 -7 0 -7 17 -24 38 -38 20 -14 41 -29 45 -35 5 -6 7 -2
5 10 -2 11 -13 24 -25 30 -12 6 -37 31 -57 55 -19 25 -49 61 -67 80 -51 58
-79 97 -79 111 0 8 -12 25 -25 38 -14 13 -25 29 -25 37 0 8 -4 14 -9 14 -5 0
-13 10 -17 22 -3 12 -13 28 -20 36 -8 7 -14 20 -14 28 0 8 -5 14 -11 14 -6 0
-8 7 -5 16 3 8 2 13 -2 10 -5 -3 -15 10 -22 29 -8 19 -17 35 -21 35 -9 0 -24
41 -21 58 2 6 -2 12 -8 12 -5 0 -10 7 -10 15 0 8 -5 15 -11 15 -5 0 -7 5 -4
11 4 5 -1 19 -10 29 -9 10 -18 27 -20 37 -2 10 -4 18 -5 18 -1 0 -3 8 -5 18
-2 10 -9 25 -16 34 -7 8 -14 20 -15 27 -4 24 -23 64 -33 71 -6 3 -15 -5 -20
-18 -5 -13 -20 -36 -33 -50 -45 -49 -56 -65 -51 -71 3 -3 2 -11 -3 -18 -12
-15 -34 -79 -39 -111 -16 -98 -22 -145 -27 -214 -1 -13 -8 -23 -15 -23 -13 0
-79 60 -66 60 4 0 4 4 -2 8 -15 11 -67 113 -61 119 3 3 0 15 -6 27 -7 11 -13
28 -13 36 0 8 -4 21 -9 29 -5 7 -10 49 -11 93 -2 44 -5 81 -7 83 -10 11 2 168
14 183 10 12 10 14 1 8 -16 -9 -7 45 13 88 8 16 14 36 14 46 0 9 4 20 9 25 6
6 12 21 15 35 13 70 19 91 26 95 10 6 3 85 -10 100 -5 6 -6 16 -2 20 4 5 1 5
-5 1 -8 -4 -20 5 -31 23 -10 17 -22 28 -25 25 -4 -4 -10 2 -13 12 -4 10 -19
37 -34 59 -41 62 -45 69 -30 60 15 -9 10 1 -22 48 -11 15 -16 27 -12 27 3 0 1
7 -6 15 -7 9 -10 18 -7 22 4 3 0 15 -8 27 -8 11 -15 29 -15 39 0 10 -8 39 -19
65 -10 26 -26 72 -36 102 -18 56 -57 131 -83 163 -8 9 -12 17 -8 17 4 0 -5 11
-19 25 -14 14 -25 29 -25 33 0 4 -16 25 -35 47 -19 22 -35 45 -35 51 0 7 -7
14 -15 17 -19 8 -68 105 -59 119 4 6 3 8 -4 4 -16 -10 -9 36 10 63 28 39 91
32 213 -24 33 -16 62 -28 65 -27 3 0 32 -17 64 -39 32 -21 62 -39 66 -39 5 0
15 -8 22 -17 32 -44 68 -55 176 -55 27 0 40 -3 36 -10 -5 -7 -1 -7 11 -1 18
10 111 -2 130 -17 6 -4 24 -10 40 -14 42 -10 85 -29 85 -39 0 -5 4 -6 10 -2
10 6 110 -45 110 -57 0 -4 7 -8 15 -8 8 0 15 -5 15 -11 0 -5 4 -8 9 -5 5 3 20
-3 34 -14 14 -11 28 -20 32 -20 10 0 86 -61 107 -85 10 -11 17 -17 18 -13 0 8
35 -19 76 -59 13 -13 28 -23 34 -23 5 0 10 -8 10 -17 0 -9 2 -14 6 -11 6 6 86
-73 154 -152 25 -29 51 -58 58 -66 6 -7 12 -17 12 -23 0 -5 6 -14 13 -18 6 -4
26 -28 42 -53 16 -25 36 -49 43 -53 7 -5 10 -12 7 -18 -4 -5 -1 -9 4 -9 6 0
11 -5 11 -11 0 -6 16 -34 35 -64 19 -29 47 -86 62 -126 15 -41 33 -80 40 -87
7 -7 13 -17 13 -21 0 -5 7 -25 15 -45 8 -20 15 -39 14 -42 0 -4 4 -10 11 -14
6 -4 12 -17 13 -28 1 -12 4 -22 8 -22 10 0 24 -41 20 -59 -1 -7 2 -11 6 -8 8
5 52 -78 57 -107 1 -6 12 -32 24 -58 12 -26 22 -52 22 -57 0 -6 5 -11 10 -11
6 0 9 -3 8 -7 -2 -12 14 -46 29 -61 6 -7 9 -20 6 -30 -3 -9 -2 -14 2 -10 8 8
28 -20 41 -54 3 -10 11 -18 16 -18 5 0 7 -4 3 -10 -7 -11 26 -33 78 -51 20 -7
37 -17 37 -22 0 -4 8 -7 18 -6 9 1 25 -1 35 -4 9 -4 25 -10 35 -14 9 -3 20 -5
25 -5 4 1 7 -2 7 -7 0 -6 9 -8 20 -6 11 2 20 0 20 -4 0 -5 21 -14 47 -20 44
-11 104 -45 111 -63 2 -4 10 -8 18 -8 12 0 66 -32 84 -50 13 -13 79 -60 85
-60 3 0 18 -11 33 -25 15 -14 32 -25 38 -25 7 0 26 -13 44 -30 18 -16 35 -30
39 -30 4 0 8 -6 8 -13 0 -10 -28 -13 -111 -14 -93 -1 -171 -7 -171 -13 0 -2
-19 -7 -56 -14 -15 -3 -44 -13 -65 -22 -21 -9 -45 -17 -53 -19 -51 -10 -62
-18 -74 -48 -4 -11 -1 -20 7 -23 8 -3 17 -21 20 -40 4 -19 11 -34 17 -34 6 0
8 -4 5 -8 -2 -4 9 -18 25 -31 16 -13 29 -28 29 -35 0 -6 18 -24 40 -40 22 -17
40 -34 40 -39 0 -4 4 -6 9 -2 5 3 17 -5 26 -17 8 -13 17 -21 20 -18 2 3 33
-14 68 -37 36 -24 70 -43 77 -43 7 0 25 -9 41 -21 16 -11 29 -18 29 -15 0 12
100 -44 137 -76 20 -18 33 -26 28 -18 -4 8 5 3 22 -12 16 -16 34 -28 41 -28 6
0 19 -11 28 -25 9 -14 20 -25 26 -25 5 0 20 -11 34 -25 14 -14 27 -25 30 -25
6 0 -3 51 -10 58 -3 3 -32 34 -63 70 -32 36 -74 81 -93 101 -19 20 -34 39 -33
43 1 3 -5 12 -14 20 -14 11 -16 11 -8 -2 8 -14 -29 17 -80 67 -12 13 -27 23
-34 23 -6 0 -11 4 -11 10 0 5 -11 12 -25 16 -14 3 -25 9 -25 13 0 3 -22 17
-50 30 -51 25 -150 110 -150 129 0 15 9 19 54 26 22 4 58 13 80 20 23 8 75 17
116 20 147 13 266 53 228 77 -7 5 -9 9 -4 9 5 0 -2 11 -15 24 -13 13 -51 53
-83 90 -33 36 -65 66 -72 66 -7 0 -19 8 -26 18 -7 10 -37 35 -67 56 -30 20
-62 45 -71 56 -9 11 -20 17 -24 13 -3 -3 -6 -1 -6 5 0 7 -7 12 -15 12 -8 0
-15 4 -15 9 0 5 -8 12 -17 15 -23 8 -58 29 -80 47 -22 18 -138 71 -153 71 -3
0 -21 8 -40 18 -33 17 -50 24 -75 30 -21 5 -65 42 -65 55 0 7 -3 15 -7 17 -5
2 -18 23 -30 48 -60 126 -75 160 -73 166 1 4 -2 10 -8 13 -12 8 -54 94 -94
190 -17 42 -37 85 -44 96 -7 11 -13 22 -13 25 1 10 -21 65 -36 93 -8 16 -15
37 -15 48 0 10 -4 19 -10 19 -5 0 -10 9 -10 20 0 11 -5 20 -11 20 -5 0 -7 5
-4 10 3 6 1 10 -5 10 -6 0 -8 5 -5 10 3 6 1 10 -5 10 -6 0 -9 4 -6 9 4 5 3 11
-1 13 -13 5 -55 69 -57 86 -2 9 -8 18 -14 20 -7 2 -12 13 -12 23 0 11 -5 17
-10 14 -6 -3 -13 2 -17 12 -4 9 -18 30 -31 44 -13 15 -22 30 -20 33 1 3 -7 13
-19 21 -13 9 -23 23 -23 31 0 8 -5 14 -11 14 -5 0 -7 5 -4 10 3 6 -1 10 -9 10
-9 0 -16 4 -16 8 0 18 -221 232 -295 287 -22 16 -44 35 -48 42 -4 7 -22 19
-40 28 -18 8 -45 26 -61 40 -16 13 -37 27 -47 30 -11 4 -17 11 -13 16 3 6 0 9
-7 8 -22 -3 -50 12 -42 24 3 5 1 7 -5 3 -6 -3 -14 -2 -17 4 -8 13 -143 80
-161 80 -8 0 -14 5 -14 11 0 6 -8 9 -17 6 -10 -2 -31 3 -46 11 -16 7 -31 11
-34 8 -3 -3 -14 -1 -25 5 -10 6 -51 12 -91 14 -102 6 -157 15 -167 26 -14 16
-139 99 -149 99 -6 0 -11 5 -11 11 0 5 -4 7 -10 4 -5 -3 -10 -2 -10 3 0 5 -18
15 -40 22 -22 7 -40 18 -40 23 0 6 -3 7 -7 4 -3 -4 -11 -3 -17 2 -32 27 -217
47 -257 28z"/>
<path d="M746 2791 c-3 -5 -14 -7 -25 -4 -11 3 -21 -2 -24 -11 -4 -10 -1 -16
8 -16 8 0 15 -5 15 -10 0 -6 11 -21 24 -33 13 -12 35 -48 50 -79 15 -32 32
-58 37 -58 15 0 49 39 50 58 4 57 -21 117 -52 125 -12 3 -19 10 -15 15 3 5 0
9 -7 9 -7 0 -22 3 -34 7 -12 4 -24 3 -27 -3z"/>
</g>
</svg>
