<?xml version="1.0" standalone="no"?>
<!DOCTYPE svg PUBLIC "-//W3C//DTD SVG 20010904//EN"
 "http://www.w3.org/TR/2001/REC-SVG-20010904/DTD/svg10.dtd">
<svg version="1.0" xmlns="http://www.w3.org/2000/svg"
 width="340.000000pt" height="340.000000pt" viewBox="0 0 340.000000 340.000000"
 preserveAspectRatio="xMidYMid meet">

<g transform="translate(0.000000,340.000000) scale(0.100000,-0.100000)"
fill="#000000" stroke="none">
<path d="M763 3151 c-95 -97 -173 -181 -173 -187 0 -6 28 -14 63 -17 34 -3
143 -13 242 -23 231 -22 226 -22 236 -4 4 8 31 68 59 132 l52 117 -30 78 -29
78 -124 1 -124 1 -172 -176z m367 60 c12 -37 11 -44 -26 -128 l-38 -88 -144
12 c-79 6 -147 15 -150 18 -3 3 43 55 103 115 l110 110 66 0 66 0 13 -39z"/>
<path d="M1270 3318 c0 -7 20 -62 44 -123 24 -60 64 -164 89 -230 26 -66 71
-185 102 -265 31 -80 60 -154 65 -165 15 -34 80 -205 80 -211 0 -3 6 -20 14
-37 8 -18 16 -40 20 -49 8 -25 23 -22 31 5 4 12 22 58 41 102 18 44 94 229
169 410 75 182 156 378 181 437 24 59 44 114 44 123 0 13 -52 15 -440 15 -337
0 -440 -3 -440 -12z m757 -80 c-28 -70 -153 -373 -217 -528 -45 -107 -86 -207
-92 -222 -5 -16 -13 -28 -16 -28 -4 0 -15 21 -25 48 -11 26 -23 56 -28 67 -4
11 -33 85 -64 165 -31 80 -74 192 -97 250 -22 58 -53 140 -69 183 l-28 77 320
0 c253 0 320 -3 316 -12z"/>
<path d="M2207 3236 l-37 -93 53 -119 c48 -106 56 -119 78 -118 13 1 105 9
204 18 99 10 208 20 243 23 45 4 62 10 60 19 -2 8 -81 92 -177 189 l-175 175
-106 0 -106 0 -37 -94z m318 -96 c60 -60 106 -112 103 -115 -3 -3 -71 -12
-150 -18 l-144 -12 -32 76 c-27 63 -31 80 -22 102 32 83 25 77 82 77 l53 0
110 -110z"/>
<path d="M1244 3033 c-8 -21 -29 -71 -46 -112 l-32 -74 -75 7 c-80 7 -355 28
-588 46 -76 5 -162 13 -190 16 l-53 5 0 -28 c0 -16 6 -49 14 -74 8 -24 33
-125 56 -224 24 -99 50 -211 59 -250 l17 -69 130 -49 c71 -26 163 -61 204 -76
135 -51 244 -92 280 -106 19 -7 76 -29 125 -48 50 -20 151 -57 225 -84 127
-46 140 -49 213 -45 l77 4 0 109 c0 103 -2 114 -39 206 -38 96 -214 553 -296
767 -23 61 -47 112 -54 114 -6 2 -18 -14 -27 -35z m165 -543 c71 -184 138
-359 150 -388 12 -29 21 -75 21 -102 0 -48 -1 -50 -27 -50 -16 0 -97 26 -182
58 l-154 57 -200 358 c-109 197 -196 361 -193 364 3 4 61 1 128 -5 68 -7 153
-12 190 -12 65 0 68 1 95 35 15 19 31 31 35 27 4 -4 66 -158 137 -342z m-877
325 l67 -6 175 -316 c97 -174 174 -318 171 -321 -3 -3 -22 2 -42 11 -21 8 -63
24 -93 35 -71 26 -210 78 -277 104 -29 11 -54 27 -57 37 -2 9 -14 54 -25 101
-11 47 -34 142 -51 212 -40 167 -40 160 18 154 26 -3 77 -8 114 -11z"/>
<path d="M2121 3028 c-5 -13 -29 -72 -54 -133 -142 -348 -169 -412 -177 -430
-5 -11 -41 -98 -80 -194 l-71 -173 3 -112 3 -111 90 -6 89 -6 171 64 c93 36
336 127 538 202 203 76 372 142 377 147 15 15 137 511 147 597 l6 49 -54 -6
c-30 -3 -148 -13 -264 -21 -115 -9 -266 -20 -335 -26 -69 -5 -159 -12 -200
-16 l-76 -6 -43 102 c-24 55 -47 101 -52 101 -5 0 -13 -10 -18 -22z m936 -220
c-2 -13 -21 -93 -42 -178 -21 -85 -44 -184 -52 -219 -7 -36 -15 -66 -16 -68
-6 -5 -490 -183 -493 -181 -3 4 351 627 364 640 6 6 54 14 109 18 54 4 106 8
117 9 14 1 17 -4 13 -21z m-887 -13 c21 -22 32 -25 94 -25 38 0 120 5 181 11
62 6 122 9 133 7 19 -3 0 -41 -187 -368 l-208 -365 -139 -52 c-88 -34 -155
-53 -181 -53 l-43 0 0 55 c0 44 13 85 71 227 96 232 185 449 216 526 14 34 28
62 32 62 4 0 18 -11 31 -25z"/>
<path d="M430 1748 l1 -433 300 -250 c165 -137 305 -251 310 -253 5 -2 9 154
9 390 l0 393 85 120 c82 116 99 149 73 141 -7 -3 -57 -14 -112 -27 l-98 -22
-137 137 -137 137 -132 49 c-73 28 -139 50 -147 50 -13 0 -15 -56 -15 -432z
m177 282 c74 -28 85 -37 213 -165 125 -126 137 -135 172 -135 21 0 38 -3 38
-7 0 -5 -14 -26 -30 -47 l-30 -40 0 -328 0 -328 -230 193 -230 192 0 348 c0
203 4 347 9 347 5 0 45 -13 88 -30z"/>
<path d="M2806 2130 l-130 -49 -137 -137 -137 -137 -98 22 c-55 13 -105 24
-111 27 -26 7 -10 -25 72 -141 l85 -120 0 -393 c0 -244 4 -392 10 -390 5 2
144 116 309 253 l300 250 1 433 c0 405 -1 432 -17 432 -10 -1 -76 -23 -147
-50z m84 -418 l0 -347 -230 -193 -230 -192 0 329 0 328 -30 41 c-16 23 -30 44
-30 47 0 3 17 5 37 5 35 0 48 10 173 135 125 125 141 137 210 164 41 17 81 30
88 30 9 1 12 -75 12 -347z"/>
<path d="M1299 1838 c-6 -13 -51 -84 -100 -159 l-89 -135 0 -567 0 -566 74
-111 c43 -65 112 -150 166 -206 l93 -94 257 0 257 0 94 95 c57 58 122 140 166
206 l73 111 0 566 0 566 -92 140 c-127 196 -112 185 -184 142 l-59 -36 -242 0
-242 0 -72 35 c-40 19 -76 35 -80 35 -5 0 -14 -10 -20 -22z m671 -123 c0 -10
-263 -455 -270 -455 -5 0 -258 425 -268 451 -2 5 114 9 267 9 149 0 271 -2
271 -5z m-524 -385 c91 -157 176 -295 187 -307 29 -32 105 -32 134 0 18 19
295 484 337 565 9 18 20 32 24 32 4 0 24 -26 45 -58 l37 -59 0 -525 0 -526
-71 -109 c-39 -59 -106 -143 -148 -185 l-76 -78 -215 0 -216 0 -71 72 c-39 40
-105 124 -147 186 l-76 112 0 527 0 526 38 59 c20 32 40 57 44 55 4 -1 82
-130 174 -287z"/>
<path d="M710 823 l0 -168 163 -163 c89 -89 166 -162 170 -162 4 0 7 87 7 193
l0 193 -155 133 c-86 72 -162 134 -170 137 -13 5 -15 -18 -15 -163z m188 -92
l72 -63 0 -76 0 -77 -90 90 -90 90 0 64 c0 60 1 63 18 50 9 -8 50 -43 90 -78z"/>
<path d="M2511 853 l-161 -137 0 -193 c0 -106 3 -193 8 -193 4 0 80 73 170
163 l162 162 0 168 c0 92 -4 167 -9 167 -5 0 -81 -62 -170 -137z m10 -247
l-91 -91 0 77 0 77 88 75 87 75 3 -61 3 -62 -90 -90z"/>
</g>
</svg>
