<?xml version="1.0" standalone="no"?>
<!DOCTYPE svg PUBLIC "-//W3C//DTD SVG 20010904//EN"
 "http://www.w3.org/TR/2001/REC-SVG-20010904/DTD/svg10.dtd">
<svg version="1.0" xmlns="http://www.w3.org/2000/svg"
 width="340.000000pt" height="340.000000pt" viewBox="0 0 340.000000 340.000000"
 preserveAspectRatio="xMidYMid meet">

<g transform="translate(0.000000,340.000000) scale(0.100000,-0.100000)"
fill="#000000" stroke="none">
<path d="M7 3147 c4 -8 386 -669 848 -1470 462 -801 842 -1457 845 -1457 4 0
628 1079 1542 2667 l157 273 -656 -2 -655 -3 -192 -332 c-105 -183 -193 -333
-196 -333 -3 0 -91 150 -196 333 l-192 332 -656 3 c-549 2 -656 0 -649 -11z
m1208 -892 c264 -459 482 -834 485 -834 3 0 221 375 485 834 l480 835 298 0
c247 0 298 -2 295 -14 -2 -7 -349 -615 -773 -1349 -483 -838 -776 -1337 -785
-1337 -9 0 -301 497 -785 1336 -424 735 -771 1343 -773 1350 -3 12 46 14 295
14 l298 0 480 -835z m225 520 c98 -170 188 -322 200 -337 31 -39 89 -39 120 0
12 15 102 167 200 337 l177 310 222 3 c158 2 221 -1 221 -9 0 -6 -194 -348
-432 -760 -297 -515 -437 -749 -448 -749 -12 0 -151 234 -448 749 -238 412
-432 754 -432 760 0 8 63 11 221 9 l221 -3 178 -310z"/>
</g>
</svg>
