<?xml version="1.0" standalone="no"?>
<!DOCTYPE svg PUBLIC "-//W3C//DTD SVG 20010904//EN"
 "http://www.w3.org/TR/2001/REC-SVG-20010904/DTD/svg10.dtd">
<svg version="1.0" xmlns="http://www.w3.org/2000/svg"
 width="340.000000pt" height="340.000000pt" viewBox="0 0 340.000000 340.000000"
 preserveAspectRatio="xMidYMid meet">

<g transform="translate(0.000000,340.000000) scale(0.100000,-0.100000)"
fill="#000000" stroke="none">
<path d="M360 2430 l0 -760 142 122 c78 68 174 149 212 182 39 32 90 77 114
99 l42 41 0 128 0 128 178 -156 c97 -86 240 -211 317 -277 77 -67 197 -171
266 -232 173 -151 390 -340 472 -409 37 -32 67 -61 67 -65 0 -5 -104 -99 -231
-210 l-231 -202 -22 19 c-11 10 -61 54 -111 96 -101 87 -394 342 -491 426 -35
30 -101 90 -148 134 l-86 78 -147 -133 c-82 -74 -169 -151 -193 -172 l-45 -38
75 -70 c78 -73 287 -257 419 -369 43 -36 118 -101 167 -145 49 -44 150 -132
224 -195 73 -63 177 -153 229 -199 53 -47 104 -91 113 -99 15 -12 29 -3 135
90 305 268 362 317 433 378 43 36 113 97 157 135 43 39 124 108 178 155 141
121 350 310 352 318 1 4 -27 32 -62 62 -35 30 -139 123 -233 205 -224 199
-592 520 -652 570 -27 22 -110 94 -185 160 -76 66 -179 156 -230 200 -251 216
-389 337 -480 420 -55 50 -166 148 -247 218 l-147 127 -175 0 -176 0 0 -760z"/>
<path d="M2604 3097 c-114 -103 -255 -228 -451 -397 -73 -63 -133 -117 -133
-121 0 -3 62 -59 138 -125 75 -65 161 -141 190 -168 l52 -49 33 29 c17 16 51
47 75 68 l42 40 0 -131 0 -131 143 -124 c265 -231 367 -318 372 -318 3 0 5
342 5 760 l0 760 -182 0 -183 0 -101 -93z"/>
</g>
</svg>
